<?xml version="1.0" encoding="UTF-8"?>
<svg width="62px" height="62px" viewBox="0 0 62 62" version="1.1" xmlns="http://www.w3.org/2000/svg" xmlns:xlink="http://www.w3.org/1999/xlink">
    <!-- Generator: Sketch 49.1 (51147) - http://www.bohemiancoding.com/sketch -->
    <title>Group</title>
    <desc>Created with Sketch.</desc>
    <defs></defs>
    <g id="Page-1" stroke="none" stroke-width="1" fill="none" fill-rule="evenodd">
        <g id="noun_allergen_1056418" fill="#000000" fill-rule="nonzero">
            <g id="Group">
                <path d="M61.2,15.9 C60.6,14.2 59.5,12.6 58.1,11 C55.6,8.2 53.7,5.1 52.5,1.7 C52.3,1.1 51.5,0.7 50.9,1 C50.3,1.3 49.9,2 50.2,2.6 C51.6,6.3 53.7,9.7 56.3,12.7 C57.5,14.1 58.4,15.4 58.9,16.9 C60,19.9 59.5,22.7 57.1,25.2 C57,25.3 56.9,25.5 56.7,25.6 L56.6,25.8 C56.4,26 56.2,26.2 56,26.4 C55.5,26.7 54.9,27 54.3,27.1 C54,27.2 53.8,27.2 53.5,27.3 C52.7,27.5 51.8,27.6 50.8,27.6 C50.1,27.6 49.3,27.6 48.4,27.5 C48.2,27.5 48,27.4 47.8,27.4 L47.3,27.3 C46.9,27.2 46.3,27.1 45.8,27.1 C45.7,27.1 45.6,27.1 45.6,27.1 L45.1,27.1 L44.7,27.4 C44.2,27.9 43.7,28.4 43.2,29 L43.1,29 C41.6,30.6 40.2,32.2 38.1,32.9 C37.4,33.2 36.6,33.3 35.8,33.3 L35.5,33.3 C34.7,33.3 33.9,33.1 33.1,32.9 C31,32.2 29.6,30.6 28.1,29 C27.5,28.4 27,27.8 26.4,27.3 L26,26.9 L25.5,26.9 C25.4,26.9 25.4,26.9 25.3,26.9 C24.9,26.9 24.3,27 23.8,27.1 L23.3,27.2 C23.1,27.2 22.9,27.3 22.7,27.3 C21.7,27.4 20.9,27.4 20.2,27.4 C19.2,27.4 18.4,27.3 17.5,27.1 C17.3,27.1 17,27 16.8,27 C16.1,26.8 15.6,26.6 15.1,26.3 C14.8,26.1 14.6,25.9 14.4,25.7 L14.3,25.6 C14.2,25.5 14,25.3 13.9,25.2 C11.6,22.7 11,19.9 12.2,16.9 C12.7,15.5 13.6,14.1 14.8,12.7 C17.5,9.7 19.5,6.3 20.9,2.6 C21.1,2 20.8,1.2 20.2,1 C19.6,0.8 18.8,1.1 18.6,1.7 C17.3,5.1 15.4,8.2 13,11 C11.6,12.6 10.5,14.2 9.9,15.9 C8.4,19.8 9.2,23.6 12.1,26.8 C12.3,27 12.4,27.2 12.6,27.3 C12.9,27.7 13.3,28 13.7,28.3 C14.4,28.7 15.2,29.1 16.1,29.4 C16.4,29.5 16.7,29.6 17.1,29.6 C18.1,29.8 19.1,29.9 20.3,29.9 C21.1,29.9 21.9,29.9 23,29.8 C23.2,29.8 23.5,29.7 23.7,29.7 L24.2,29.6 C24.4,29.6 24.7,29.5 24.9,29.5 C25.3,29.9 25.7,30.3 26.1,30.8 C27.7,32.5 29.5,34.4 32.1,35.3 C33.1,35.6 34.1,35.8 35.3,35.9 L35.5,35.9 L35.7,35.9 C36.8,35.9 37.8,35.7 38.8,35.3 C41.5,34.4 43.3,32.5 44.8,30.7 L45,30.5 C45.4,30.1 45.7,29.8 46,29.4 C46.3,29.4 46.5,29.5 46.7,29.5 L47.2,29.6 C47.4,29.6 47.7,29.7 48,29.7 C49.1,29.8 49.9,29.8 50.7,29.8 C51.8,29.8 52.9,29.7 53.9,29.5 C54.2,29.4 54.6,29.4 54.9,29.3 C55.8,29.1 56.6,28.7 57.3,28.2 C57.8,27.9 58.1,27.6 58.4,27.2 C58.6,27 58.7,26.9 58.9,26.7 C61.8,23.7 62.6,19.8 61.2,15.9 Z" id="Shape"></path>
                <path d="M35.4,25.3 C38.7,25.3 42,24.4 45.3,22.7 C45.9,22.4 46.1,21.6 45.8,21 C45.5,20.4 44.7,20.2 44.1,20.5 C38.2,23.6 32.4,23.6 26.5,20.5 C25.9,20.2 25.1,20.4 24.8,21 C24.5,21.6 24.7,22.4 25.3,22.7 C28.8,24.4 32.1,25.3 35.4,25.3 Z" id="Shape"></path>
                <path d="M6.9,46 C6.5,46.1 6,46.1 5.4,46 C4.7,46 3.9,46 3.1,46.2 C2,46.6 1,47.4 0.5,48.6 C0,49.7 0,51 0.4,52.1 C0.9,53.2 1.8,54 3.1,54.4 C4.3,54.8 5.6,54.6 6.6,54 C7.2,53.6 7.7,53.1 8.1,52.7 C8.5,52.3 8.9,51.9 9.3,51.7 C9.7,51.5 10.3,51.6 10.9,52 C11.4,52.3 11.9,52.8 11.9,53.3 C11.9,53.6 11.7,54 11.5,54.5 C11.3,54.9 11.1,55.4 10.9,55.9 C10.6,57 10.9,58.3 11.6,59.3 C12.3,60.3 13.4,61 14.5,61.2 C14.7,61.2 14.8,61.2 15,61.2 C16,61.2 17,60.8 17.8,60.1 C18.7,59.3 19.3,58.2 19.3,57 C19.3,56.2 19.1,55.4 18.9,54.7 C18.8,54.2 18.6,53.8 18.6,53.4 C18.5,52.3 19.2,51.2 20,50 C21,48.4 22.1,46.9 23.6,46.5 C24,46.4 24.5,46.4 25,46.4 C25.9,46.4 26.9,46.4 27.8,45.9 C28.9,45.4 29.8,44.2 30,42.9 C30.2,41.9 30,40.9 29.6,40 C28.5,38.1 25.7,37.3 23.7,38.4 C23.1,38.7 22.6,39.2 22.1,39.6 C21.7,39.9 21.4,40.2 21.1,40.4 C19.9,41.1 18.3,40.5 17.7,40.2 C17.1,39.9 15.6,39.1 15.3,37.7 C15.2,37.3 15.3,36.9 15.3,36.4 C15.3,35.7 15.4,35 15.2,34.2 C14.9,32.9 14,31.9 12.8,31.4 C11.2,30.7 9.3,31.2 8,32.6 C6.7,34 6.5,35.9 7.3,37.4 C7.6,38 8.1,38.5 8.5,39 C8.8,39.3 9.1,39.6 9.3,39.9 C10,41 9.5,42.5 9.2,43.3 C8.9,44.1 8.1,45.6 6.9,46 Z M11.3,38.7 C11,38.2 10.5,37.7 10.2,37.3 C9.9,37 9.5,36.6 9.4,36.3 C9,35.6 9.3,34.8 9.8,34.3 C10.2,33.8 11,33.4 11.8,33.7 C12.3,33.9 12.7,34.3 12.8,34.8 C12.9,35.2 12.9,35.7 12.8,36.2 C12.8,36.8 12.7,37.4 12.9,38.1 C13.2,39.9 14.6,41.4 16.7,42.4 C18.8,43.3 20.8,43.4 22.4,42.5 C23,42.2 23.5,41.7 23.9,41.3 C24.3,41 24.6,40.6 25,40.5 C25.8,40 27.1,40.4 27.5,41.2 C27.7,41.5 27.7,41.9 27.7,42.3 C27.6,42.8 27.3,43.3 26.9,43.5 C26.4,43.7 25.8,43.7 25.1,43.8 C24.5,43.8 23.8,43.8 23.1,44 C20.7,44.6 19.3,46.6 18,48.6 C17.2,49.8 16.1,51.5 16.3,53.5 C16.4,54.2 16.6,54.8 16.7,55.4 C16.9,55.9 17,56.4 17,56.9 C17,57.3 16.8,57.8 16.4,58.2 C16,58.5 15.5,58.7 15.1,58.7 C14.7,58.6 14.2,58.3 13.9,57.9 C13.6,57.5 13.5,57 13.6,56.5 C13.7,56.2 13.8,55.9 14,55.6 C14.3,55 14.7,54.2 14.7,53.4 C14.7,52 13.8,50.7 12.4,49.9 C11.6,49.5 10.8,49.2 10,49.2 C9.5,49.2 9.1,49.3 8.6,49.4 C7.7,49.8 7,50.4 6.5,51 C6.2,51.4 5.8,51.7 5.5,51.9 C5.1,52.1 4.6,52.2 4.1,52 C3.6,51.8 3.2,51.5 3,51.1 C2.8,50.7 2.8,50.1 3.1,49.7 C3.4,49.3 3.7,48.8 4.2,48.7 C4.6,48.6 5.2,48.6 5.7,48.6 C6.4,48.6 7.1,48.6 7.9,48.4 C9.6,47.9 11,46.5 11.8,44.3 C12.2,42.2 12.2,40.2 11.3,38.7 Z" id="Shape"></path>
            </g>
        </g>
    </g>
</svg>