<?xml version="1.0" encoding="UTF-8"?>
<svg width="71px" height="71px" viewBox="0 0 71 71" version="1.1" xmlns="http://www.w3.org/2000/svg" xmlns:xlink="http://www.w3.org/1999/xlink">
    <!-- Generator: Sketch 49.1 (51147) - http://www.bohemiancoding.com/sketch -->
    <title>Shape</title>
    <desc>Created with Sketch.</desc>
    <defs></defs>
    <g id="Page-1" stroke="none" stroke-width="1" fill="none" fill-rule="evenodd">
        <path d="M15.9688323,34.923827 C15.0344714,35.1574173 13.8665201,35.1574173 12.4649787,34.923827 C10.8298469,34.923827 8.96112498,34.923827 7.09240302,35.3910075 C4.52291032,36.3253685 2.18700787,38.1940905 1.01905664,40.9971734 C-0.148894584,43.5666661 -0.148894584,46.6033393 0.785466397,49.172832 C1.95341762,51.7423247 4.05572983,53.6110466 7.09240302,54.5454076 C9.89548596,55.4797686 12.9321592,55.0125881 15.2680616,53.6110466 C16.6696031,52.6766857 17.8375543,51.5087344 18.7719153,50.5743735 C19.7062763,49.6400125 20.6406372,48.7056515 21.5749982,48.238471 C22.5093592,47.7712905 23.9109007,48.0048808 25.3124422,48.9392417 C26.4803934,49.6400125 27.6483446,50.8079637 27.6483446,51.9759149 C27.6483446,52.6766857 27.1811641,53.6110466 26.7139836,54.7789979 C26.2468031,55.7133589 25.7796226,56.8813101 25.3124422,58.0492613 C24.6116714,60.618754 25.3124422,63.6554272 26.9475739,65.9913296 C28.5827056,68.3272321 31.1521983,69.9623638 33.721691,70.4295443 C34.1888715,70.4295443 34.4224617,70.4295443 34.8896422,70.4295443 C37.2255447,70.4295443 39.5614471,69.4951833 41.4301691,67.8600516 C43.5324813,65.9913296 44.9340228,63.4218369 44.9340228,60.618754 C44.9340228,58.750032 44.4668423,56.8813101 43.9996618,55.2461784 C43.7660715,54.0782271 43.298891,53.1438662 43.298891,52.2095052 C43.0653008,49.6400125 44.7004325,47.0705198 46.5691545,44.2674368 C48.9050569,40.5299929 51.4745496,37.0261392 54.9784033,36.0917782 C55.9127643,35.858188 57.0807155,35.858188 58.2486667,35.858188 C60.350979,35.858188 62.6868814,35.858188 64.7891936,34.6902368 C67.3586863,33.5222855 69.4609985,30.7192026 69.928179,27.6825294 C70.3953595,25.346627 69.928179,23.0107245 68.993818,20.9084123 C66.4243253,16.4701976 59.8837985,14.6014757 55.2119936,17.1709684 C53.8104521,17.8717391 52.6425009,19.0396903 51.4745496,19.9740513 C50.5401886,20.6748221 49.8394179,21.3755928 49.1386472,21.8427733 C46.3355642,23.477905 42.5981203,22.0763635 41.1965788,21.3755928 C39.7950374,20.6748221 36.2911837,18.8061001 35.5904129,15.5358367 C35.3568227,14.6014757 35.5904129,13.6671147 35.5904129,12.4991635 C35.5904129,10.8640318 35.8240032,9.22890003 35.3568227,7.36017807 C34.656052,4.32350488 32.5537398,1.98760243 29.7506568,0.819651202 C26.0132129,-0.815480515 21.5749982,0.352470712 18.538325,3.62273415 C15.5016519,6.89299758 15.0344714,11.3312122 16.9031933,14.8350659 C17.6039641,16.2366074 18.7719153,17.4045586 19.7062763,18.5725098 C20.407047,19.2732806 21.1078177,19.9740513 21.5749982,20.6748221 C23.2101299,23.2443148 22.0421787,26.7481684 21.341408,28.6168904 C20.6406372,30.4856124 18.7719153,33.989466 15.9688323,34.923827 Z M26.2468031,17.8717391 C25.5460324,16.7037879 24.3780812,15.5358367 23.6773104,14.6014757 C22.9765397,13.9007049 22.0421787,12.966344 21.8085885,12.2655732 C20.8742275,10.6304415 21.5749982,8.76171954 22.7429495,7.59376832 C23.6773104,6.42581709 25.5460324,5.49145611 27.4147544,6.19222684 C28.5827056,6.65940734 29.5170666,7.59376832 29.7506568,8.76171954 C29.9842471,9.69608052 29.9842471,10.8640318 29.7506568,12.031983 C29.7506568,13.4335244 29.5170666,14.8350659 29.9842471,16.4701976 C30.6850178,20.6748221 33.9552812,24.1786757 38.8606764,26.5145782 C43.7660715,28.6168904 48.4378764,28.8504806 52.1753204,26.7481684 C53.5768618,26.0473977 54.7448131,24.8794465 55.679174,23.9450855 C56.613535,23.2443148 57.3143058,22.3099538 58.2486667,22.0763635 C60.1173887,20.9084123 63.1540619,21.8427733 64.0884229,23.7114952 C64.5556034,24.412266 64.5556034,25.346627 64.5556034,26.2809879 C64.3220131,27.4489392 63.6212424,28.6168904 62.6868814,29.0840709 C61.5189302,29.5512514 60.1173887,29.5512514 58.482257,29.7848416 C57.0807155,29.7848416 55.4455838,29.7848416 53.8104521,30.2520221 C48.2042862,31.6535636 44.9340228,36.3253685 41.8973496,40.9971734 C40.0286276,43.8002563 37.4591349,47.7712905 37.9263154,52.4430954 C38.1599056,54.0782271 38.6270861,55.4797686 38.8606764,56.8813101 C39.3278569,58.0492613 39.5614471,59.2172125 39.5614471,60.3851638 C39.5614471,61.3195247 39.0942666,62.487476 38.1599056,63.4218369 C37.2255447,64.1226077 36.0575934,64.5897882 35.1232325,64.5897882 C34.1888715,64.3561979 33.0209203,63.6554272 32.3201495,62.7210662 C31.6193788,61.7867052 31.3857885,60.618754 31.6193788,59.4508028 C31.852969,58.750032 32.0865593,58.0492613 32.5537398,57.3484906 C33.2545105,55.9469491 34.1888715,54.0782271 34.1888715,52.2095052 C34.1888715,48.9392417 32.0865593,45.9025685 28.8162958,44.0338466 C26.9475739,43.0994856 25.0788519,42.3987149 23.2101299,42.3987149 C22.0421787,42.3987149 21.1078177,42.6323051 19.9398665,42.8658954 C17.8375543,43.8002563 16.2024226,45.2017978 15.0344714,46.6033393 C14.3337006,47.5377003 13.3993396,48.238471 12.6985689,48.7056515 C11.7642079,49.172832 10.5962567,49.4064222 9.42830547,48.9392417 C8.26035425,48.4720612 7.32599327,47.7712905 6.85881278,46.8369295 C6.39163228,45.9025685 6.39163228,44.5010271 7.09240302,43.5666661 C7.79317376,42.6323051 8.49394449,41.4643539 9.66189572,41.2307636 C10.5962567,40.9971734 11.9977982,40.9971734 13.1657494,40.9971734 C14.8008811,40.9971734 16.4360128,40.9971734 18.3047348,40.5299929 C22.275769,39.3620417 25.5460324,36.0917782 27.4147544,30.9527928 C28.3491153,26.0473977 28.3491153,21.3755928 26.2468031,17.8717391 Z" id="Shape" fill="#2B2B2B" fill-rule="nonzero"></path>
    </g>
</svg>