<?xml version="1.0" encoding="UTF-8"?>
<svg width="67px" height="66px" viewBox="0 0 67 66" version="1.1" xmlns="http://www.w3.org/2000/svg" xmlns:xlink="http://www.w3.org/1999/xlink">
    <!-- Generator: Sketch 49.1 (51147) - http://www.bohemiancoding.com/sketch -->
    <title>Bacteria</title>
    <desc>Created with Sketch.</desc>
    <defs></defs>
    <g id="Page-1" stroke="none" stroke-width="1" fill="none" fill-rule="evenodd">
        <g id="index" transform="translate(-327.000000, -3405.000000)" fill="#2B2B2B">
            <g id="Section-tree" transform="translate(255.000000, 2878.000000)">
                <g id="Feature-item" transform="translate(72.000000, 526.000000)">
                    <g id="Bacteria">
                        <g id="noun_Bacteria_952965">
                            <path d="M66.61,32.49 C66.1262375,31.6636444 65.2770633,31.1178634 64.3244296,31.0210189 C63.3717959,30.9241744 62.4301613,31.2879022 61.79,32 L53.9,32 C53.6820986,29.8522904 53.1146175,27.7546367 52.22,25.79 L59.09,21.79 C60.4271481,22.2454199 61.8988767,21.6819581 62.59,20.45 C63.2044052,19.4226603 63.1492741,18.1283946 62.4497309,17.1570244 C61.7501877,16.1856543 60.5401371,15.7231169 59.3710224,15.9801993 C58.2019076,16.2372817 57.2975176,17.1647739 57.07,18.34 L50.21,22.34 C48.9491768,20.5936298 47.4163702,19.0608232 45.67,17.8 L49.67,10.94 C51.1979374,10.5898955 52.1987667,9.1224862 51.9669803,7.57218273 C51.735194,6.02187927 50.3489383,4.91136381 48.7854169,5.0234643 C47.2218954,5.1355648 46.0082469,6.43248677 46,8 C46.0039382,8.31649951 46.0579394,8.63038177 46.16,8.93 L42.16,15.78 C40.210955,14.8907676 38.1306337,14.3234072 36,14.1 L36,6.21 C36.9271097,5.38076789 37.2463496,4.06543432 36.8025171,2.90346575 C36.3586846,1.74149718 35.2438482,0.973932023 34,0.973932023 C32.7561518,0.973932023 31.6413154,1.74149718 31.1974829,2.90346575 C30.7536504,4.06543432 31.0728903,5.38076789 32,6.21 L32,14.1 C29.852323,14.3180782 27.7546976,14.8855517 25.79,15.78 L21.79,8.93 C22.225525,7.58514579 21.6631197,6.11872627 20.44,5.41 C19.5111095,4.87410157 18.3668808,4.87446822 17.4383339,5.41096183 C16.509787,5.94745544 15.9379902,6.93856986 15.9383339,8.01096188 C15.9386775,9.08335389 16.5111094,10.0741016 17.44,10.61 C17.7178809,10.7630534 18.0182798,10.871062 18.33,10.93 L22.33,17.79 C20.5836298,19.0508232 19.0508232,20.5836298 17.79,22.33 L10.93,18.33 C10.5796267,16.8008032 9.11021964,15.7997859 7.55889966,16.0334752 C6.00757968,16.2671645 4.89827359,17.6566366 5.01393971,19.2211895 C5.12960584,20.7857424 6.4311803,21.9969801 8,22 C8.31649951,21.9960618 8.63038177,21.9420606 8.93,21.84 L15.78,25.84 C14.8906011,27.7889847 14.3232332,29.8693337 14.1,32 L6.21,32 C5.26333962,30.9524408 3.71433995,30.7067661 2.49,31.41 C1.44207484,31.9905466 0.83999944,33.1388871 0.9585181,34.3310007 C1.07703676,35.5231143 1.89342546,36.5304326 3.03514257,36.8932874 C4.17685968,37.2561421 5.42499952,36.9049617 6.21,36 L14.1,36 C14.3179014,38.1477096 14.8853825,40.2453633 15.78,42.21 L8.93,46.21 C7.58514579,45.774475 6.11872627,46.3368803 5.41,47.56 C4.79559477,48.5873397 4.85072592,49.8816054 5.55026913,50.8529756 C6.24981234,51.8243457 7.45986288,52.2868831 8.62897762,52.0298007 C9.79809236,51.7727183 10.7024824,50.8452261 10.93,49.67 L17.79,45.67 C19.0508232,47.4163702 20.5836298,48.9491768 22.33,50.21 L18.33,57.07 C16.8008032,57.4203733 15.7997859,58.8897804 16.0334752,60.4411003 C16.2671645,61.9924203 17.6566366,63.1017264 19.2211895,62.9860603 C20.7857424,62.8703942 21.9969801,61.5688197 22,60 C21.9960618,59.6835005 21.9420606,59.3696182 21.84,59.07 L25.84,52.22 C27.789045,53.1092324 29.8693663,53.6765928 32,53.9 L32,61.79 C31.0728903,62.6192321 30.7536504,63.9345657 31.1974829,65.0965342 C31.6413154,66.2585028 32.7561518,67.026068 34,67.026068 C35.2438482,67.026068 36.3586846,66.2585028 36.8025171,65.0965342 C37.2463496,63.9345657 36.9271097,62.6192321 36,61.79 L36,53.9 C38.147677,53.6819218 40.2453024,53.1144483 42.21,52.22 L46.21,59.07 C45.774475,60.4148542 46.3368803,61.8812737 47.56,62.59 C48.4888905,63.1258984 49.6331192,63.1255317 50.561666,62.5890381 C51.4902129,62.0525445 52.0620097,61.0614301 52.061666,59.9890381 C52.0613224,58.9166461 51.4888905,57.9258984 50.56,57.39 C50.2821191,57.2369466 49.9817202,57.128938 49.67,57.07 L45.67,50.21 C47.4163702,48.9491768 48.9491768,47.4163702 50.21,45.67 L57.07,49.67 C57.4203733,51.1991968 58.8897804,52.2002141 60.4411003,51.9665248 C61.9924203,51.7328355 63.1017264,50.3433634 62.9860603,48.7788105 C62.8703942,47.2142576 61.5688197,46.0030199 60,46 C59.6835005,46.0039382 59.3696182,46.0579394 59.07,46.16 L52.22,42.16 C53.1093989,40.2110153 53.6767668,38.1306663 53.9,36 L61.81,36 C62.7538159,37.0373296 64.2903706,37.2823478 65.51,36.59 C66.1999013,36.1924907 66.7034799,35.5370266 66.909805,34.7679965 C67.1161302,33.9989663 67.0082756,33.1794592 66.61,32.49 Z M34,50 C25.163444,50 18,42.836556 18,34 C18,25.163444 25.163444,18 34,18 C42.836556,18 50,25.163444 50,34 C50,38.2434638 48.3142906,42.3131264 45.3137085,45.3137085 C42.3131264,48.3142906 38.2434638,50 34,50 Z" id="Shape" fill-rule="nonzero"></path>
                            <circle id="Oval" fill-rule="nonzero" cx="42.5" cy="30.5" r="3.5"></circle>
                            <circle id="Oval" fill-rule="nonzero" cx="31.5" cy="30.5" r="3.5"></circle>
                            <circle id="Oval" fill-rule="nonzero" cx="25.5" cy="38.5" r="3.5"></circle>
                            <circle id="Oval" fill-rule="nonzero" cx="37" cy="44" r="3"></circle>
                            <circle id="Oval" fill-rule="nonzero" cx="44" cy="38" r="3"></circle>
                            <circle id="Oval" fill-rule="nonzero" cx="37" cy="23" r="3"></circle>
                            <circle id="Oval" fill-rule="nonzero" cx="23" cy="31" r="3"></circle>
                            <circle id="Oval" fill-rule="nonzero" cx="36" cy="37" r="3"></circle>
                            <circle id="Oval" fill-rule="nonzero" cx="30" cy="45" r="3"></circle>
                            <circle id="Oval" fill-rule="nonzero" cx="28" cy="24" r="3"></circle>
                        </g>
                    </g>
                </g>
            </g>
        </g>
    </g>
</svg>