<?xml version="1.0" encoding="UTF-8"?>
<svg width="510px" height="202px" viewBox="0 0 510 202" version="1.1" xmlns="http://www.w3.org/2000/svg" xmlns:xlink="http://www.w3.org/1999/xlink">
    <!-- Generator: Sketch 49.1 (51147) - http://www.bohemiancoding.com/sketch -->
    <title>twinkle birds-01</title>
    <desc>Created with Sketch.</desc>
    <defs></defs>
    <g id="Page-1" stroke="none" stroke-width="1" fill="none" fill-rule="evenodd">
        <g id="twinkle-birds-01" transform="translate(0.000000, -798.000000)">
            <polyline id="Fill-1" fill="#B2D051" points="65.696 813.329 40.642 813.329 40.642 884.216 25.976 884.216 25.976 813.329 0.799 813.329 0.799 798.663 65.696 798.663 65.696 813.329"></polyline>
            <polyline id="Fill-2" fill="#B2D051" points="96.25 884.216 69.363 798.663 84.762 798.663 103.706 858.916 121.183 798.663 136.583 798.663 155.526 858.916 173.003 798.663 188.281 798.663 163.348 884.216 148.07 884.216 129.126 823.962 111.527 884.216 96.25 884.216"></polyline>
            <polygon id="Fill-3" fill="#B2D051" points="194.391 884.216 209.057 884.216 209.057 798.785 194.391 798.785"></polygon>
            <polyline id="Fill-4" fill="#B2D051" points="283.12 798.541 283.12 884.093 267.232 884.093 232.889 825.551 232.889 884.093 218.223 884.093 218.223 798.541 234.112 798.541 268.454 857.083 268.454 798.541 283.12 798.541"></polyline>
            <polyline id="Fill-5" fill="#B2D051" points="338.852 884.46 306.342 851.95 306.342 884.216 291.676 884.216 291.676 798.785 306.342 798.785 306.342 831.173 338.606 798.907 359.384 798.907 316.73 841.562 359.628 884.46 338.852 884.46"></polyline>
            <polyline id="Fill-6" fill="#B2D051" points="413.403 869.55 413.403 884.216 365.128 884.216 365.128 798.785 379.794 798.785 379.794 869.55 413.403 869.55"></polyline>
            <polyline id="Fill-7" fill="#B2D051" points="434.792 813.329 434.792 834.105 466.69 834.105 470.357 848.772 434.792 848.772 434.792 869.55 477.691 869.55 477.691 884.216 420.126 884.216 420.126 798.663 477.691 798.663 477.691 813.329 434.792 813.329"></polyline>
            <path d="M29.8,950.474 L47.608,950.474 C54.336,950.474 62.974,948.869 62.974,940.384 C62.896,932.052 55.33,929.07 48.144,929.07 C41.724,929.07 36.22,929.07 29.8,929.07 L29.8,950.474 Z M29.8,925.172 L48.144,925.172 C54.565,925.172 61.292,923.184 61.292,915.541 C61.292,907.745 54.259,904.458 47.608,904.458 L29.8,904.458 L29.8,925.172 Z M65.189,915.541 C65.189,921.045 61.826,925.326 56.475,927.008 C63.202,928.842 67.024,934.27 67.024,940.461 C67.024,951.466 56.782,954.448 47.608,954.448 C39.813,954.448 33.469,954.448 25.672,954.448 L25.672,900.942 C33.392,900.942 39.813,900.942 47.608,900.942 C56.628,900.942 65.189,905.375 65.189,915.541 Z" id="Fill-8" fill="#7CCADD"></path>
            <polygon id="Fill-9" fill="#7CCADD" points="89.187 954.448 93.239 954.448 93.239 900.942 89.187 900.942"></polygon>
            <path d="M121.441,930.295 L140.398,930.295 C149.723,930.295 153.851,925.021 153.928,917.528 C154.004,911.262 149.723,904.765 140.856,904.765 L121.441,904.765 L121.441,930.295 Z M159.966,954.448 L154.54,954.448 L136.041,934.193 L121.441,934.193 L121.441,954.448 L117.313,954.448 L117.313,900.942 C125.188,900.942 132.984,900.942 140.856,900.942 C152.475,900.942 158.361,909.273 158.438,917.604 C158.514,926.319 152.781,933.962 141.086,933.962 L159.966,954.448 Z" id="Fill-10" fill="#7CCADD"></path>
            <path d="M182.816,904.839 L182.816,950.474 L196.805,950.474 C212.703,950.474 220.042,938.548 219.812,927.083 C219.583,915.923 212.246,904.839 196.805,904.839 L182.816,904.839 Z M223.939,927.083 C224.245,940.689 215.531,954.448 196.805,954.448 C190.765,954.448 184.727,954.448 178.688,954.448 L178.688,900.942 C184.727,900.942 190.765,900.942 196.805,900.942 C214.92,900.942 223.634,913.936 223.939,927.083 Z" id="Fill-11" fill="#7CCADD"></path>
            <path d="M280.192,911.262 C276.296,904.993 270.027,904.076 263.988,904 C257.722,904 247.784,906.293 247.784,914.854 C247.784,921.656 255.121,923.263 264.142,924.943 C274.461,926.932 285.162,928.766 285.162,940.308 C285.085,952.385 272.932,955.288 263.988,955.288 C255.657,955.288 246.179,951.849 242.051,943.67 L245.721,941.835 C249.006,948.334 257.417,951.544 263.988,951.544 C270.563,951.544 281.035,949.708 281.035,940.229 C281.111,932.204 272.243,930.446 263.454,928.766 C253.67,926.854 243.656,924.866 243.656,915.007 C243.427,903.693 255.199,900.178 263.988,900.178 C271.632,900.178 278.283,901.4 283.557,909.273 L280.192,911.262" id="Fill-12" fill="#7CCADD"></path>
            <path d="M288.11,979.838 C330.294,955.899 372.127,932.163 413.957,908.427 C414.259,908.592 414.561,908.757 414.865,908.922 C408.589,916.235 402.578,923.797 395.986,930.811 C379.095,948.785 359.646,963.631 338.041,975.417 C322.073,984.128 305.048,984.928 288.11,979.838" id="Fill-13" fill="#7CCADD"></path>
            <path d="M355.407,995.649 C380.169,969.033 404.679,942.685 429.19,916.338 C429.678,916.708 430.16,917.075 430.648,917.445 C427.005,923.278 423.436,929.158 419.711,934.938 C408.673,952.076 397.822,969.34 386.406,986.222 C379.733,996.087 367.803,999.45 355.407,995.649" id="Fill-14" fill="#7CCADD"></path>
            <path d="M408.744,999.459 C419.73,973.164 430.346,947.749 440.962,922.335 C441.428,922.416 441.891,922.496 442.357,922.578 C441.313,930.632 440.444,938.712 439.187,946.732 C437.58,957.012 435.764,967.263 433.855,977.494 C431.314,991.118 424.481,997.263 408.744,999.459" id="Fill-15" fill="#7CCADD"></path>
            <path d="M458.41,913.887 C460.795,926.855 463.202,939.819 465.546,952.795 C466.148,956.13 466.491,959.511 467.061,962.852 C468.976,974.076 464.382,982.027 453.546,988.375 C454.631,962.98 455.677,938.515 456.723,914.046 C457.284,913.992 457.849,913.94 458.41,913.887" id="Fill-16" fill="#B2D051"></path>
            <path d="M481.381,958.702 C478.077,941.418 474.982,925.234 471.758,908.373 C489.963,925.123 493.877,944.508 481.381,958.702" id="Fill-17" fill="#B2D051"></path>
            <path d="M482.005,891.515 C502.155,901.619 507.799,913.742 498.167,926.143 C492.81,914.667 487.616,903.541 482.005,891.515" id="Fill-18" fill="#F2AE38"></path>
            <path d="M507.256,897.794 C502.161,891.062 497.255,884.575 492.215,877.911 C505.673,878.579 512.096,886.849 507.256,897.794" id="Fill-19" fill="#F2AE38"></path>
            <path d="M492.855,859.093 C505.966,857.82 508.573,859.582 509.201,869.523 C503.894,866.138 499.15,863.112 492.855,859.093" id="Fill-20" fill="#F2AE38"></path>
        </g>
    </g>
</svg>