<?xml version="1.0" encoding="UTF-8"?>
<svg width="70px" height="73px" viewBox="0 0 70 73" version="1.1" xmlns="http://www.w3.org/2000/svg" xmlns:xlink="http://www.w3.org/1999/xlink">
    <!-- Generator: Sketch 49.1 (51147) - http://www.bohemiancoding.com/sketch -->
    <title>Molecules</title>
    <desc>Created with Sketch.</desc>
    <defs></defs>
    <g id="Page-1" stroke="none" stroke-width="1" fill="none" fill-rule="evenodd">
        <g id="index" transform="translate(-1136.000000, -3490.000000)" fill="#2B2B2B">
            <g id="Section-tree" transform="translate(255.000000, 2878.000000)">
                <g id="Feature-item-Copy-3" transform="translate(881.000000, 612.000000)">
                    <g id="Molecules">
                        <g id="noun_molecules_868996">
                            <path d="M32.5492222,45.5931596 C26.2196667,45.5931596 21.0661111,40.449766 21.0661111,34.1290532 C21.0661111,27.8106702 26.2196667,22.6696064 32.5492222,22.6696064 C38.8787778,22.6696064 44.0268889,27.8106702 44.0268889,34.1290532 C44.0261111,40.449766 38.878,45.5931596 32.5492222,45.5931596 Z M32.5492222,25.400117 C27.7262222,25.400117 23.8,29.3180426 23.8,34.1298298 C23.8,38.9455 27.7262222,42.8634255 32.5492222,42.8634255 C37.3714444,42.8634255 41.2922222,38.9455 41.2922222,34.1298298 C41.2922222,29.317266 37.3714444,25.400117 32.5492222,25.400117 Z" id="Shape" fill-rule="nonzero"></path>
                            <polygon id="Shape" fill-rule="nonzero" points="24.6812222 27.6988404 11.4037778 13.8171915 13.3801111 11.9285106 26.6575556 25.809383"></polygon>
                            <rect id="Rectangle-path" fill-rule="nonzero" transform="translate(44.469619, 21.204563) rotate(42.223583) translate(-44.469619, -21.204563) " x="43.1031149" y="13.7153571" width="2.73300759" height="14.9784114"></rect>
                            <rect id="Rectangle-path" fill-rule="nonzero" transform="translate(51.558060, 38.612790) rotate(14.478169) translate(-51.558060, -38.612790) " x="42.1310344" y="37.2472071" width="18.8540521" height="2.73116602"></rect>
                            <path d="M36.3992222,62.5858511 C32.1214444,43.3115213 32.1214444,43.3115213 33.2538889,42.8758511 L34.237,45.4238617 L33.7454444,44.1494681 L35.0964444,43.9390106 C35.1975556,44.5121383 37.5324444,55.0505426 39.0693333,61.9933085 L36.3992222,62.5858511 Z" id="Shape" fill-rule="nonzero"></path>
                            <polygon id="Shape" fill-rule="nonzero" points="10.2441111 39.9550745 9.74244444 37.2734894 22.4108889 34.9219574 22.9133333 37.6035426"></polygon>
                            <path d="M7.99555556,15.9574894 C3.66411111,15.9574894 0.133777778,12.4371809 0.133777778,8.11076596 C0.133777778,3.78279787 3.66488889,0.263265957 7.99555556,0.263265957 C12.3324444,0.263265957 15.8573333,3.78279787 15.8573333,8.11076596 C15.8581111,12.4379574 12.3324444,15.9574894 7.99555556,15.9574894 Z M7.99555556,2.993 C5.16988889,2.993 2.86844444,5.28939362 2.86844444,8.10998936 C2.86844444,10.9305851 5.16988889,13.2262021 7.99555556,13.2262021 C10.8212222,13.2262021 13.1234444,10.9305851 13.1234444,8.10998936 C13.1234444,5.28939362 10.8212222,2.993 7.99555556,2.993 Z" id="Shape" fill-rule="nonzero"></path>
                            <path d="M64.3595556,47.3389468 C61.3153333,47.3389468 58.842,44.8701489 58.842,41.8359894 C58.842,38.8018298 61.3153333,36.3322553 64.3595556,36.3322553 C67.3991111,36.3322553 69.8662222,38.8018298 69.8662222,41.8359894 C69.8662222,44.8701489 67.3991111,47.3389468 64.3595556,47.3389468 Z M64.3595556,39.062766 C62.8265556,39.062766 61.5782222,40.3084255 61.5782222,41.8359894 C61.5782222,43.3635532 62.8265556,44.6084362 64.3595556,44.6084362 C65.8878889,44.6084362 67.1315556,43.3635532 67.1315556,41.8359894 C67.1315556,40.3084255 65.8878889,39.062766 64.3595556,39.062766 Z" id="Shape" fill-rule="nonzero"></path>
                            <path d="M6.86388889,43.8349468 C4.47611111,43.8349468 2.527,41.8903511 2.527,39.5054255 C2.527,37.1197234 4.47611111,35.1751277 6.86388889,35.1751277 C9.25711111,35.1751277 11.2062222,37.1197234 11.2062222,39.5054255 C11.2062222,41.8903511 9.25633333,43.8349468 6.86388889,43.8349468 Z M6.86388889,37.9056383 C5.98266667,37.9056383 5.26166667,38.6224362 5.26166667,39.5062021 C5.26166667,40.3891915 5.98266667,41.1059894 6.86388889,41.1059894 C7.75055556,41.1059894 8.47155556,40.3891915 8.47155556,39.5062021 C8.47155556,38.6216596 7.75055556,37.9056383 6.86388889,37.9056383 Z" id="Shape" fill-rule="nonzero"></path>
                            <path d="M52.8445556,17.9471277 C49.5008889,17.9471277 46.7771111,15.2274894 46.7771111,11.8834681 C46.7771111,8.54255319 49.5008889,5.82291489 52.8445556,5.82291489 C56.1928889,5.82291489 58.9182222,8.54255319 58.9182222,11.8834681 C58.9182222,15.2267128 56.1928889,17.9471277 52.8445556,17.9471277 Z M52.8445556,8.55264894 C51.0074444,8.55264894 49.5117778,10.0460426 49.5117778,11.8834681 C49.5117778,13.7208936 51.0074444,15.216617 52.8445556,15.216617 C54.6871111,15.216617 56.182,13.720117 56.182,11.8834681 C56.182,10.0468191 54.6878889,8.55264894 52.8445556,8.55264894 Z" id="Shape" fill-rule="nonzero"></path>
                            <path d="M38.3498889,72.996117 C34.888,72.996117 32.074,70.185617 32.074,66.729766 C32.074,63.2770213 34.888,60.4688511 38.3498889,60.4688511 C41.8047778,60.4688511 44.6203333,63.2762447 44.6203333,66.729766 C44.6195556,70.185617 41.8047778,72.996117 38.3498889,72.996117 Z M38.3498889,63.1993617 C36.3945556,63.1993617 34.8086667,64.783617 34.8086667,66.729766 C34.8086667,68.6790213 36.3953333,70.2656064 38.3498889,70.2656064 C40.299,70.2656064 41.8848889,68.6790213 41.8848889,66.729766 C41.8848889,64.783617 40.299,63.1993617 38.3498889,63.1993617 Z" id="Shape" fill-rule="nonzero"></path>
                            <path d="M39.4496667,34.8761383 L36.715,34.8435213 C36.7624444,30.364117 32.6285556,30.0231915 32.4527778,30.0123191 L32.6456667,27.2872447 C35.0272222,27.455766 39.5134444,29.2551383 39.4496667,34.8761383 Z" id="Shape" fill-rule="nonzero"></path>
                        </g>
                    </g>
                </g>
            </g>
        </g>
    </g>
</svg>