<?xml version="1.0" encoding="UTF-8"?>
<svg width="70px" height="64px" viewBox="0 0 70 64" version="1.1" xmlns="http://www.w3.org/2000/svg" xmlns:xlink="http://www.w3.org/1999/xlink">
    <!-- Generator: Sketch 49.1 (51147) - http://www.bohemiancoding.com/sketch -->
    <title>noun_smell_1512570</title>
    <desc>Created with Sketch.</desc>
    <defs></defs>
    <g id="Page-1" stroke="none" stroke-width="1" fill="none" fill-rule="evenodd">
        <g id="index" transform="translate(-255.000000, -3574.000000)" fill="#2B2B2B">
            <g id="Section-tree" transform="translate(255.000000, 2878.000000)">
                <g id="Feature-item-Copy" transform="translate(0.000000, 694.000000)">
                    <g id="noun_smell_1512570" transform="translate(0.000000, 2.000000)">
                        <g>
                            <path d="M57.3127954,48.4119489 C55.3350738,48.0494309 53.2447468,48.2296121 51.2678376,48.9332404 C48.2872257,49.9941092 46.0380696,52.050806 45.1020042,54.444748 L42.5989873,54.3038142 C42.5805274,54.3027735 42.5621414,54.3021045 42.5436814,54.3015099 C40.9313924,54.2512613 38.5136603,52.7533937 37.2585338,50.3335099 C36.2716667,48.4308293 35.6467616,45.3114797 38.2692511,41.2533148 L58.4533966,10.7690221 C58.4643249,10.7523717 58.4751793,10.7355726 58.4857384,10.7186992 C60.3479747,7.73537747 61.1561498,5.54570035 60.4054219,1.85696632 C60.1598312,0.650480836 58.9890295,-0.127405343 57.7906857,0.119972125 C56.5922679,0.367200929 55.8196835,1.54566318 56.0652004,2.75214866 C56.4957595,4.86741928 56.2502426,5.91297561 54.7502637,8.32052033 L34.5761603,38.7895749 C34.5718776,38.7960418 34.5676688,38.8025087 34.5634599,38.8089756 C30.5638608,44.9882091 32.0746941,49.9751545 33.3312236,52.3977886 C35.2127321,56.0253473 38.9288608,58.6367108 42.3770253,58.7582439 L51.5906646,59.2770825 C51.632827,59.2794611 51.6746203,59.2806504 51.7164135,59.2806504 C51.8031751,59.2806504 51.8887553,59.2750012 51.973154,59.2650407 C52.3539451,59.3042137 52.7447046,59.4074611 52.9640084,59.647554 C53.2586287,59.9699326 53.3927954,60.6664994 53.3225738,61.5106156 C53.2206751,62.7380627 54.1263924,63.8161022 55.3454852,63.9186806 C55.4083966,63.9238839 55.4705696,63.9264855 55.5324473,63.9264855 C56.6723101,63.9264855 57.6407911,63.0461696 57.7374473,61.8821278 C57.9165823,59.7240418 57.3934283,57.9071405 56.2244726,56.6279582 C55.4557278,55.786741 54.0196203,54.7838513 51.5431118,54.7838513 C51.4684599,54.7838513 51.3948418,54.7877909 51.3222574,54.7949268 L50.1570675,54.7292915 C50.8137236,54.0750941 51.7179641,53.5032567 52.7446308,53.1378397 C53.7566772,52.7775517 57.2723312,51.8274379 60.0176899,54.7255749 C60.8619726,55.616892 62.2641878,55.6504158 63.1495992,54.8005017 C64.0350105,53.950439 64.0682384,52.5390197 63.2239557,51.647777 C61.6098207,49.9440836 59.565865,48.8250128 57.3127954,48.4119489 Z" id="Shape" fill-rule="nonzero"></path>
                            <path d="M68.9798312,43.176288 C68.3106962,41.5897422 67.1670675,40.2714611 65.7611603,39.3009059 C65.0607173,38.8159628 64.3172257,38.4199954 63.5665717,38.0849059 C62.0610549,37.416957 60.5325,36.9761672 59.0385759,36.5942485 L59.0111076,36.586741 C58.8478481,36.5460813 58.6772785,36.5234843 58.5019093,36.52118 C57.2695992,36.5051986 56.2575527,37.4980534 56.2418249,38.7386574 C56.2259494,39.9791127 57.2121519,40.9979837 58.4446097,41.0138165 C59.8562764,41.0321022 61.2322785,41.1011568 62.5247679,41.3364181 C63.8154114,41.5729431 64.940211,42.1024111 66.0241772,42.7237538 C68.6031751,44.2024437 69.6061392,49.4381045 69.5364346,50.1175006 C70.291519,48.3796144 69.9835338,45.0194286 68.9798312,43.176288 Z" id="Shape" fill-rule="nonzero"></path>
                            <ellipse id="Oval" fill-rule="nonzero" cx="25.4239557" cy="52.7389733" rx="2.21541139" ry="2.23018815"></ellipse>
                            <ellipse id="Oval" fill-rule="nonzero" cx="15.8239873" cy="51.028813" rx="2.21541139" ry="2.23018815"></ellipse>
                            <ellipse id="Oval" fill-rule="nonzero" cx="22.913481" cy="42.8511591" rx="2.21541139" ry="2.23018815"></ellipse>
                            <ellipse id="Oval" fill-rule="nonzero" cx="13.240116" cy="59.8011986" rx="2.21541139" ry="2.23018815"></ellipse>
                            <ellipse id="Oval" fill-rule="nonzero" cx="31.7757911" cy="59.3551312" rx="2.21541139" ry="2.23018815"></ellipse>
                            <ellipse id="Oval" fill-rule="nonzero" cx="39.6767089" cy="61.7337607" rx="2.21541139" ry="2.23018815"></ellipse>
                            <ellipse id="Oval" fill-rule="nonzero" cx="2.28135021" cy="30.5125389" rx="2.21541139" ry="2.23018815"></ellipse>
                            <ellipse id="Oval" fill-rule="nonzero" cx="22.61827" cy="28.949705" rx="2.21541139" ry="2.23018815"></ellipse>
                            <ellipse id="Oval" fill-rule="nonzero" cx="11.4672257" cy="38.762741" rx="2.21541139" ry="2.23018815"></ellipse>
                            <ellipse id="Oval" fill-rule="nonzero" cx="3.71317511" cy="50.8058908" rx="2.21541139" ry="2.23018815"></ellipse>
                            <ellipse id="Oval" fill-rule="nonzero" cx="12.5748945" cy="20.0291754" rx="2.21541139" ry="2.23018815"></ellipse>
                            <ellipse id="Oval" fill-rule="nonzero" cx="23.5713924" cy="61.4368037" rx="2.21541139" ry="2.23018815"></ellipse>
                        </g>
                    </g>
                </g>
            </g>
        </g>
    </g>
</svg>